PathFileType	4	(X/Y/Z)	OpenSim_Sub06_CSStiffKnee_Gyro.trc
DataRate	CameraRate	NumFrames	NumMarkers	Units	OrigDataRate	OrigDataStartFrame	OrigNumFrames
100	100	20	8	m	100	6269	7164
Frame#	Time	torso_imu_offset_imu	pelvis_imu_offset_imu	tibia_r_imu_offset_imu	femur_r_imu_offset_imu	tibia_l_imu_offset_imu	femur_l_imu_offset_imu	toes_r_imu_offset_imu	toes_l_imu_offset_imu
				X1	Y1	Z1	X2	Y2	Z2	X3	Y3	Z3	X4	Y4	Z4	X5	Y5	Z5	X6	Y6	Z6	X7	Y7	Z7	X8		Y8	Z8	

6269	62.68000000	0.22253660	0.23847332	0.28728204	0.58877729	-0.11941063	0.14099175	-0.28691713	-0.56450388	-1.42073087	-0.49118056	-0.38023467	0.40770297	-0.00850452	0.59161192	2.01796695	1.06558516	0.34480809	-0.19569732	2.59255331	-2.05289389	0.46674829	-0.45246811	-1.19498010	0.79969672
6270	62.69000000	0.23854597	0.21336448	0.19512101	0.57715481	-0.24149193	0.23027501	0.07445382	-0.55205173	-1.72060741	-0.53305856	-0.80435114	0.32056616	0.04631216	0.62724219	2.15054973	0.87765584	0.28185243	-0.27865665	2.46530417	1.68081352	-0.91482514	-0.10953347	-1.47820713	0.80713029
6271	62.70000000	0.18246993	0.11030846	0.04704591	0.43984479	-0.49775204	0.43545516	-0.46438896	-0.57032337	-1.79010964	-0.70432112	-1.36719826	0.02024214	0.05783912	0.67755416	2.24829203	0.72116206	0.22268355	-0.38755820	-2.71299848	0.76214021	-1.29352520	-0.49758397	-1.91616694	0.86377393
6272	62.71000000	0.14728808	0.15709217	0.10037632	0.41034872	-0.68292554	0.73119448	-0.86801264	-0.45956209	-1.91495450	-0.54171293	-1.51443659	-0.46504317	-0.00207319	0.65083892	2.29656164	0.45696269	0.15048135	-0.58176548	2.03348264	0.72514289	0.04233590	-0.49026073	-2.42136286	0.99718582
6273	62.72000000	0.13677291	0.22386068	0.17296325	0.28717217	-0.47884781	0.83622681	1.59733979	0.32725799	-2.27317324	0.64325538	-0.62666759	-0.47661910	-0.11353408	0.57156387	2.40706247	0.24021853	0.07868826	-0.77979980	-0.05785362	-0.13997249	-0.29728438	-0.55449380	-2.90491796	1.11327278
6274	62.73000000	0.11606507	0.08108786	0.11713993	-0.25090453	-0.08104201	0.51451420	3.18022027	0.73579644	-2.39478741	1.61246321	0.70304719	0.18338755	-0.16516780	0.38880070	2.61598704	0.20690424	0.08334707	-0.92594897	0.22445121	-0.06223118	0.05351273	-0.51245841	-3.48240040	1.17589549
6275	62.74000000	0.22774505	-0.05520585	0.05228062	-0.65382318	0.18231940	0.18641124	3.49346972	0.35753916	-2.22253956	1.24012558	0.99206915	0.46616845	-0.04378857	0.18086761	2.75125964	-0.02446075	0.19494607	-1.15762872	-0.02826980	-0.21802387	0.12197373	-0.59528544	-4.00737279	1.26731612
6276	62.75000000	0.34997107	-0.07917851	-0.01208200	-0.68535681	0.31977608	-0.10486607	4.38596518	-0.08347002	-1.93335975	0.64886490	0.44019853	0.18728607	0.00202211	0.06219872	2.86065342	-0.37110159	0.42403947	-1.52229140	-0.18465783	-0.29277736	0.24884340	-0.41531214	-4.52456064	1.36526458
6277	62.76000000	0.41114316	-0.07860860	0.06387447	-0.44673255	0.30858547	-0.32819691	3.88562044	-0.62877776	-1.53591352	0.54158652	-0.06444329	-0.20890350	-0.00302003	-0.08208203	3.00001705	-0.57657278	0.83326925	-1.87171355	-0.24259956	-0.28512738	0.25325094	-0.39440043	-5.10782743	1.42526997
6278	62.77000000	0.44601061	-0.13539726	0.15631892	-0.04424029	0.24236420	-0.44447268	2.80104901	-0.87027480	-1.19773243	0.33933683	-0.28418180	-0.53774718	0.16658887	-0.14319632	3.01654377	-0.61164783	1.46340642	-2.10186487	-0.10823454	-0.20948475	0.14040471	-0.36123156	-5.60100040	1.45331234
6279	62.78000000	0.48456979	-0.17935743	0.20716326	0.32679049	0.22518188	-0.45333321	1.86120376	-0.77618483	-0.85501460	-0.17603185	-0.40242127	-0.89746213	0.40682873	0.02693082	2.93914351	-0.39325765	2.02031229	-2.19426411	0.02235340	-0.10398586	-0.02262528	-0.62787722	-5.96703805	1.52180589
6280	62.79000000	0.60621750	-0.12446969	0.22986197	0.61310010	0.24056321	-0.32829807	0.88554032	-0.56386534	-0.54033144	-0.86968122	-0.56091818	-1.21186986	0.39235446	0.24464051	2.87050952	-0.06453388	2.18915498	-2.21948011	0.06082545	-0.01509248	-0.09258645	-0.06241030	-6.11453067	1.50693524
6281	62.80000000	0.72274185	-0.09200205	0.21111204	0.83070706	0.27160337	-0.15236934	-0.03793929	-0.39317270	-0.42792607	-1.53263034	-0.84745740	-1.41484933	0.25710383	0.21845124	2.70352753	-0.02503527	1.99800593	-2.06700424	0.03904409	0.06476968	-0.10792083	0.62987417	-6.10503456	1.59269487
6282	62.81000000	0.79905116	-0.08414209	0.15269396	0.94146398	0.29070222	-0.02865595	-0.89340407	-0.37030643	-0.48041998	-2.01895575	-1.12952509	-1.54330737	0.05780972	0.10881983	2.30500846	-0.32065123	1.62052110	-1.85107151	0.05224855	0.09365729	-0.15705385	0.39977464	-6.06023304	1.70175166
6283	62.82000000	0.84314580	-0.07277038	0.09556251	0.98930687	0.29270472	0.05888799	-1.55477525	-0.43913300	-0.64394028	-2.28698846	-1.09297065	-1.54246887	-0.29484335	-0.02809966	1.81159878	-0.83164630	1.32551475	-1.70999823	0.03273377	0.08459140	-0.19153698	1.16096377	-5.33972554	1.59348308
6284	62.83000000	0.85672558	-0.08329186	0.04859851	0.96076525	0.27353372	0.11193957	-1.98013203	-0.37015807	-0.79278387	-2.15004882	-0.68232957	-1.28873472	-0.55470381	-0.10848934	1.42490017	-1.10039246	1.08584824	-1.63574246	-0.00793641	0.07494216	-0.17220283	2.27078779	-4.14474527	1.30056534
6285	62.84000000	0.85105200	-0.12328405	0.01962289	0.81566877	0.25059048	0.12836700	-1.90199219	-0.24697584	-0.78829160	-1.48985187	-0.20840365	-1.00337233	-0.60685063	-0.15081929	1.26972936	-0.72619638	0.66875880	-1.59379644	0.01032778	0.01973271	-0.16895013	1.53773423	-3.01189043	1.26379577
6286	62.85000000	0.85831225	-0.17014409	0.03930360	0.58617515	0.27973453	0.11274495	-1.30697896	-0.15035542	-0.69512810	-0.58603568	0.07196286	-0.94775790	-0.62509705	-0.24041421	1.16396827	-0.32349004	0.33034164	-1.66346497	0.00392466	-0.02938891	-0.13068012	-0.46756566	-0.27206304	0.89118045
6287	62.86000000	0.86205378	-0.21111560	0.11151184	0.35478557	0.35210421	0.04305207	-0.42203680	-0.15800247	-0.63440553	0.05292818	0.14131522	-0.94071538	-0.49929045	-0.31439337	0.87783809	0.09073210	0.16921348	-1.90458445	-0.04904592	-0.08067106	-0.06850938	-0.94361570	2.39078267	0.21142105
6288	62.87000000	0.87480357	-0.25559907	0.20643921	0.21285975	0.39266681	-0.10337213	0.42683189	-0.21376797	-0.64341461	0.35961427	0.09542873	-0.82193282	0.03232733	-0.38855323	0.28344654	0.36423667	0.28505040	-2.16382239	-0.05916636	-0.13757494	-0.03392132	-0.12763577	1.77154566	0.66187636
